<?xml version="1.0" encoding="UTF-8" standalone="no"?>
<!DOCTYPE svg PUBLIC "-//W3C//DTD SVG 1.1//EN" "http://www.w3.org/Graphics/SVG/1.1/DTD/svg11.dtd">
<svg width="100%" height="100%" viewBox="0 0 15 18" version="1.1" xmlns="http://www.w3.org/2000/svg" xmlns:xlink="http://www.w3.org/1999/xlink" xml:space="preserve" xmlns:serif="http://www.serif.com/" style="fill-rule:evenodd;clip-rule:evenodd;stroke-linejoin:round;stroke-miterlimit:2;">
    <g transform="matrix(1,0,0,1,-7.69,-5.88)">
        <path d="M7.69,13.2C7.69,12.21 7.88,11.26 8.27,10.35C8.66,9.44 9.18,8.67 9.84,8.02C10.5,7.37 11.28,6.85 12.18,6.46C13.08,6.07 14.03,5.88 15.02,5.88C16.01,5.88 16.96,6.07 17.87,6.46C18.77,6.85 19.55,7.37 20.2,8.02C20.85,8.67 21.37,9.45 21.76,10.35C22.15,11.25 22.34,12.2 22.34,13.2C22.34,14.82 21.86,16.26 20.9,17.54C19.94,18.81 18.7,19.68 17.19,20.15L17.19,23.44L12.95,23.44L12.95,20.19C11.41,19.74 10.14,18.87 9.16,17.58C8.18,16.29 7.69,14.83 7.69,13.2ZM9.3,13.2C9.3,14.75 9.86,16.08 10.99,17.19C12.1,18.31 13.44,18.87 15.01,18.87C16.04,18.87 17,18.62 17.87,18.11C18.75,17.6 19.44,16.91 19.96,16.04C20.47,15.17 20.73,14.22 20.73,13.19C20.73,12.42 20.58,11.69 20.28,10.98C19.98,10.27 19.57,9.67 19.06,9.16C18.55,8.65 17.94,8.24 17.23,7.94C16.52,7.64 15.79,7.49 15.02,7.49C14.25,7.49 13.52,7.64 12.81,7.94C12.1,8.24 11.5,8.65 10.99,9.16C10.48,9.67 10.07,10.28 9.77,10.98C9.45,11.7 9.3,12.43 9.3,13.2ZM9.88,13.56L9.88,12.84L12.05,12.84L12.05,13.56L9.88,13.56ZM10.97,10.02L11.49,9.5L13.01,11.02L12.49,11.55L10.97,10.02ZM13.5,14.95C13.5,14.53 13.65,14.17 13.94,13.86C14.23,13.55 14.59,13.39 15,13.38L17.73,8.89L18.39,9.24L16.37,14.07C16.55,14.32 16.63,14.61 16.63,14.95C16.63,15.39 16.48,15.76 16.17,16.06C15.86,16.36 15.49,16.51 15.05,16.51C14.62,16.51 14.25,16.36 13.95,16.06C13.65,15.76 13.5,15.39 13.5,14.95ZM14.81,10.29L14.81,8.12L15.5,8.12L15.5,10.29L14.81,10.29ZM17.75,13.55L17.75,12.81L19.92,12.81L19.92,13.55L17.75,13.55Z" style="fill:white;fill-rule:nonzero;"/>
    </g>
</svg>
