<?xml version="1.0" encoding="UTF-8" standalone="no"?>
<!DOCTYPE svg PUBLIC "-//W3C//DTD SVG 1.1//EN" "http://www.w3.org/Graphics/SVG/1.1/DTD/svg11.dtd">
<svg width="100%" height="100%" viewBox="0 0 11 23" version="1.1" xmlns="http://www.w3.org/2000/svg" xmlns:xlink="http://www.w3.org/1999/xlink" xml:space="preserve" xmlns:serif="http://www.serif.com/" style="fill-rule:evenodd;clip-rule:evenodd;stroke-linejoin:round;stroke-miterlimit:2;">
    <g transform="matrix(1,0,0,1,-9.91,-2.55)">
        <path d="M9.91,19.56C9.91,18.71 10.11,17.92 10.5,17.18C10.89,16.44 11.44,15.83 12.15,15.34L12.15,5.42C12.15,4.62 12.42,3.94 12.97,3.39C13.52,2.84 14.2,2.55 15,2.55C15.81,2.55 16.49,2.83 17.04,3.38C17.59,3.94 17.87,4.61 17.87,5.41L17.87,15.33C18.58,15.82 19.12,16.44 19.51,17.17C19.9,17.9 20.09,18.7 20.09,19.55C20.09,20.47 19.86,21.33 19.41,22.11C18.96,22.89 18.34,23.51 17.56,23.96C16.78,24.41 15.93,24.64 15,24.64C14.08,24.64 13.23,24.41 12.45,23.96C11.67,23.51 11.05,22.89 10.59,22.11C10.13,21.33 9.91,20.48 9.91,19.56ZM11.67,19.56C11.67,20.49 12,21.29 12.65,21.95C13.3,22.61 14.09,22.94 15.01,22.94C15.94,22.94 16.74,22.61 17.41,21.94C18.08,21.27 18.42,20.48 18.42,19.57C18.42,18.95 18.26,18.37 17.94,17.84C17.62,17.31 17.18,16.9 16.62,16.61L16.34,16.47C16.24,16.43 16.19,16.33 16.19,16.18L16.19,5.42C16.19,5.1 16.08,4.83 15.85,4.61C15.62,4.4 15.34,4.29 15,4.29C14.68,4.29 14.4,4.4 14.17,4.61C13.94,4.82 13.83,5.09 13.83,5.42L13.83,16.16C13.83,16.31 13.78,16.41 13.69,16.45L13.42,16.59C12.87,16.88 12.44,17.29 12.13,17.82C11.82,18.35 11.67,18.92 11.67,19.56ZM12.45,19.56C12.45,20.27 12.69,20.88 13.18,21.38C13.67,21.88 14.25,22.13 14.94,22.13C15.63,22.13 16.22,21.88 16.73,21.38C17.24,20.88 17.49,20.27 17.49,19.57C17.49,18.94 17.27,18.38 16.84,17.9C16.41,17.42 15.88,17.13 15.26,17.05L15.26,10.29C15.26,10.23 15.23,10.16 15.16,10.1C15.09,10.03 15.02,10 14.94,10C14.85,10 14.78,10.03 14.73,10.08C14.68,10.14 14.65,10.2 14.65,10.29L14.65,17.03C14.04,17.12 13.52,17.4 13.09,17.88C12.66,18.37 12.45,18.92 12.45,19.56Z" style="fill:white;fill-rule:nonzero;"/>
    </g>
</svg>
