<?xml version="1.0" encoding="UTF-8" standalone="no"?>
<!DOCTYPE svg PUBLIC "-//W3C//DTD SVG 1.1//EN" "http://www.w3.org/Graphics/SVG/1.1/DTD/svg11.dtd">
<svg width="100%" height="100%" viewBox="0 0 25 25" version="1.1" xmlns="http://www.w3.org/2000/svg" xmlns:xlink="http://www.w3.org/1999/xlink" xml:space="preserve" xmlns:serif="http://www.serif.com/" style="fill-rule:evenodd;clip-rule:evenodd;stroke-linejoin:round;stroke-miterlimit:2;">
    <g transform="matrix(1.11012,0,0,1.11012,-4.15187,-3.5746)">
        <path d="M3.74,14.5C3.74,12.46 4.25,10.57 5.26,8.84C6.27,7.11 7.64,5.74 9.37,4.73C11.1,3.72 12.98,3.22 15.01,3.22C16.53,3.22 17.99,3.52 19.38,4.11C20.77,4.7 21.96,5.51 22.97,6.51C23.98,7.51 24.78,8.71 25.37,10.11C25.96,11.51 26.26,12.96 26.26,14.5C26.26,16.02 25.96,17.48 25.37,18.87C24.78,20.26 23.97,21.46 22.97,22.46C21.97,23.46 20.77,24.26 19.38,24.85C17.99,25.44 16.54,25.74 15.01,25.74C13.48,25.74 12.01,25.44 10.62,24.85C9.23,24.26 8.03,23.45 7.02,22.45C6.01,21.45 5.22,20.25 4.62,18.87C4.02,17.49 3.74,16.03 3.74,14.5ZM6.22,14.5C6.22,16.87 7.08,18.93 8.81,20.68C10.54,22.41 12.6,23.27 15.01,23.27C16.59,23.27 18.06,22.88 19.4,22.09C20.74,21.3 21.82,20.24 22.61,18.89C23.4,17.54 23.8,16.08 23.8,14.5C23.8,12.92 23.4,11.45 22.61,10.1C21.82,8.75 20.75,7.68 19.4,6.89C18.05,6.1 16.59,5.71 15.01,5.71C13.43,5.71 11.96,6.1 10.62,6.89C9.28,7.68 8.2,8.75 7.4,10.1C6.6,11.45 6.22,12.92 6.22,14.5ZM11.11,20.35L14.86,7.24C14.87,7.14 14.92,7.09 15.01,7.09C15.1,7.09 15.15,7.14 15.16,7.24L18.9,20.35C18.94,20.46 18.93,20.54 18.88,20.6C18.83,20.66 18.75,20.66 18.64,20.6L15.17,19.3C15.07,19.26 14.97,19.26 14.88,19.3L11.38,20.6C11.28,20.66 11.21,20.66 11.17,20.6C11.13,20.54 11.09,20.45 11.11,20.35Z" style="fill:white;fill-rule:nonzero;"/>
    </g>
</svg>
